<svg fill="#BB4D00" xmlns="http://www.w3.org/2000/svg" xmlns:xlink="http://www.w3.org/1999/xlink" version="1.1" x="0px" y="0px" viewBox="0 0 64 64" style="enable-background:new 0 0 64 64;" xml:space="preserve"><rect x="16" y="10" width="18" height="2"></rect><rect x="16" y="14" width="18" height="2"></rect><rect x="16" y="18" width="13" height="2"></rect><path d="M10,33.4V26H5c-1.7,0-3-1.3-3-3V7c0-1.7,1.3-3,3-3h30c1.7,0,3,1.3,3,3v16c0,1.7-1.3,3-3,3H17.4L10,33.4z M5,6  C4.4,6,4,6.4,4,7v16c0,0.6,0.4,1,1,1h7v4.6l4.6-4.6H35c0.6,0,1-0.4,1-1V7c0-0.6-0.4-1-1-1H5z"></path><path d="M10,13c-1.7,0-3-1.3-3-3s1.3-3,3-3s3,1.3,3,3S11.7,13,10,13z M10,9c-0.6,0-1,0.4-1,1s0.4,1,1,1s1-0.4,1-1S10.6,9,10,9z"></path><path d="M14,23H9v-2h3v-3c0-1.1-0.9-2-2-2s-2,0.9-2,2v5H6v-5c0-2.2,1.8-4,4-4s4,1.8,4,4V23z"></path><path d="M54,40.4L46.6,33H29c-1.7,0-3-1.3-3-3v-2h2v2c0,0.6,0.4,1,1,1h18.4l4.6,4.6V31h7c0.6,0,1-0.4,1-1V14c0-0.6-0.4-1-1-1H40v-2  h19c1.7,0,3,1.3,3,3v16c0,1.7-1.3,3-3,3h-5V40.4z"></path><rect x="40" y="17" width="8" height="2"></rect><rect x="40" y="21" width="8" height="2"></rect><rect x="42" y="25" width="6" height="2"></rect><path d="M54,20c-1.7,0-3-1.3-3-3s1.3-3,3-3s3,1.3,3,3S55.7,20,54,20z M54,16c-0.6,0-1,0.4-1,1s0.4,1,1,1s1-0.4,1-1S54.6,16,54,16z"></path><path d="M58,30h-2v-5c0-1.1-0.9-2-2-2s-2,0.9-2,2v3h3v2h-5v-5c0-2.2,1.8-4,4-4s4,1.8,4,4V30z"></path><path d="M21,45.4V38h-5c-1.7,0-3-1.3-3-3v-3h2v3c0,0.6,0.4,1,1,1h7v4.6l4.6-4.6H46v2H28.4L21,45.4z"></path><path d="M54.5,59c-0.2,0-0.3,0-0.5-0.1l-4-2.2l-4,2.2c-0.4,0.2-0.8,0.2-1.1-0.1s-0.4-0.7-0.3-1.1l1.3-4.4l-3.5-3.1  c-0.3-0.3-0.4-0.7-0.3-1.1c0.1-0.4,0.5-0.6,0.9-0.6h4.4l1.7-3.9c0.2-0.4,0.5-0.6,0.9-0.6s0.8,0.2,0.9,0.6l1.7,3.9H57  c0.4,0,0.8,0.3,0.9,0.6c0.1,0.4,0,0.8-0.3,1.1l-3.5,3.1l1.3,4.4c0.1,0.4,0,0.8-0.3,1.1C54.9,58.9,54.7,59,54.5,59z M50,54.5  c0.2,0,0.3,0,0.5,0.1l2.3,1.3L52,53.3c-0.1-0.4,0-0.8,0.3-1l2-1.7H52c-0.4,0-0.8-0.2-0.9-0.6L50,47.5l-1.1,2.4  c-0.2,0.4-0.5,0.6-0.9,0.6h-2.3l2,1.7c0.3,0.3,0.4,0.7,0.3,1l-0.8,2.6l2.3-1.3C49.7,54.5,49.8,54.5,50,54.5z"></path><path d="M18.5,59c-0.2,0-0.3,0-0.5-0.1l-4-2.2l-4,2.2c-0.4,0.2-0.8,0.2-1.1-0.1s-0.4-0.7-0.3-1.1l1.3-4.4l-3.5-3.1  C6,50,5.9,49.5,6.1,49.1c0.1-0.4,0.5-0.6,0.9-0.6h4.4l1.7-3.9c0.2-0.4,0.5-0.6,0.9-0.6s0.8,0.2,0.9,0.6l1.7,3.9H21  c0.4,0,0.8,0.3,0.9,0.6c0.1,0.4,0,0.8-0.3,1.1l-3.5,3.1l1.3,4.4c0.1,0.4,0,0.8-0.3,1.1C18.9,58.9,18.7,59,18.5,59z M14,54.5  c0.2,0,0.3,0,0.5,0.1l2.3,1.3L16,53.3c-0.1-0.4,0-0.8,0.3-1l2-1.7H16c-0.4,0-0.8-0.2-0.9-0.6L14,47.5l-1.1,2.4  c-0.2,0.4-0.5,0.6-0.9,0.6H9.7l2,1.7c0.3,0.3,0.4,0.7,0.3,1l-0.8,2.6l2.3-1.3C13.7,54.5,13.8,54.5,14,54.5z"></path><path d="M36.5,59c-0.2,0-0.3,0-0.5-0.1l-4-2.2l-4,2.2c-0.4,0.2-0.8,0.2-1.1-0.1c-0.3-0.3-0.4-0.7-0.3-1.1l1.3-4.4l-3.5-3.1  c-0.3-0.3-0.4-0.7-0.3-1.1c0.1-0.4,0.5-0.6,0.9-0.6h4.4l1.7-3.9c0.2-0.4,0.5-0.6,0.9-0.6c0.4,0,0.8,0.2,0.9,0.6l1.7,3.9H39  c0.4,0,0.8,0.3,0.9,0.6c0.1,0.4,0,0.8-0.3,1.1l-3.5,3.1l1.3,4.4c0.1,0.4,0,0.8-0.3,1.1C36.9,58.9,36.7,59,36.5,59z M32,54.5  c0.2,0,0.3,0,0.5,0.1l2.3,1.3L34,53.3c-0.1-0.4,0-0.8,0.3-1l2-1.7H34c-0.4,0-0.8-0.2-0.9-0.6L32,47.5l-1.1,2.4  c-0.2,0.4-0.5,0.6-0.9,0.6h-2.3l2,1.7c0.3,0.3,0.4,0.7,0.3,1l-0.8,2.6l2.3-1.3C31.7,54.5,31.8,54.5,32,54.5z"></path></svg>